<svg id="Ebene_1" data-name="Ebene 1" xmlns="http://www.w3.org/2000/svg" xmlns:xlink="http://www.w3.org/1999/xlink" viewBox="0 0 309.33 512.78">
  <defs>
    <style>
      .cls-1 {
        fill: none;
      }

      .cls-2 {
        clip-path: url(#clip-path);
      }

      .cls-3 {
        fill: #02aa9b;
      }

      .cls-4 {
        fill: #b8b832;
      }

      .cls-5 {
        fill: #bd3371;
      }

      .cls-6 {
        fill: #376662;
      }

      .cls-7 {
        fill: #e75238;
      }

      .cls-8 {
        fill: #866180;
      }

      .cls-9 {
        fill: #f2dc28;
      }

      .cls-10 {
        fill: #ffce23;
      }

      .cls-11 {
        fill: #ec642b;
      }

      .cls-12 {
        fill: #f0802e;
      }

      .cls-13 {
        fill: #f2a732;
      }

      .cls-14 {
        fill: #e9de2b;
      }

      .cls-15 {
        fill: #8ea749;
      }

      .cls-16 {
        fill: #869e52;
      }

      .cls-17 {
        fill: #b4c236;
      }

      .cls-18 {
        fill: #6e7d5b;
      }

      .cls-19 {
        fill: #597c78;
      }

      .cls-20 {
        fill: #006b70;
      }

      .cls-21 {
        fill: #58898b;
      }

      .cls-22 {
        fill: #356d6b;
      }

      .cls-23 {
        fill: #58979b;
      }

      .cls-24 {
        fill: #8188ab;
      }

      .cls-25 {
        fill: #618ea7;
      }

      .cls-26 {
        fill: #7f4b7f;
      }

      .cls-27 {
        fill: #924b7e;
      }

      .cls-28 {
        fill: #e24887;
      }

      .cls-29 {
        fill: #e95094;
      }

      .cls-30 {
        fill: #e24966;
      }

      .cls-31 {
        fill: #b3374a;
      }

      .cls-32 {
        fill: #158d7f;
      }

      .cls-33 {
        fill: #5d9e70;
      }

      .cls-34 {
        fill: #c66728;
      }

      .cls-35 {
        fill: #6a7694;
      }

      .cls-36 {
        fill: #e5375a;
      }

      .cls-37 {
        fill: #bdc336;
      }

      .cls-38 {
        fill: #f4972e;
      }

      .cls-39 {
        fill: #bf3636;
      }

      .cls-40 {
        fill: #9c544b;
      }

      .cls-41 {
        fill: #1b7f75;
      }

      .cls-42 {
        fill: #c9a23d;
      }

      .cls-43 {
        fill: #ddcf37;
      }

      .cls-44 {
        fill: #e9b61f;
      }

      .cls-45 {
        fill: #427f63;
      }

      .cls-46 {
        fill: #158578;
      }

      .cls-47 {
        fill: #e7523b;
      }

      .cls-48 {
        fill: #de426e;
      }

      .cls-49 {
        fill: #06a3a0;
      }

      .cls-50 {
        fill: #c9af3d;
      }

      .cls-51 {
        fill: #e55d48;
      }

      .cls-52 {
        fill: #e63a59;
      }

      .cls-53 {
        font-size: 70.79px;
      }

      .cls-53, .cls-55 {
        fill: #fff;
        font-family: TeXGyreAdventor-Regular, TeX Gyre Adventor;
      }

      .cls-54 {
        letter-spacing: 0em;
      }

      .cls-55 {
        font-size: 14.16px;
      }

      .cls-56 {
        letter-spacing: -0.01em;
      }

      .cls-57 {
        letter-spacing: 0.02em;
      }

      .cls-58 {
        letter-spacing: 0em;
      }

      .cls-59 {
        letter-spacing: 0em;
      }

      .cls-60 {
        letter-spacing: -0.02em;
      }
    </style>
    <clipPath id="clip-path" transform="translate(-143 -41.52)">
      <rect class="cls-1" x="143" y="41.52" width="309.33" height="491.75"/>
    </clipPath>
  </defs>
  <title>Logo Bild &amp;amp; Schrift weiß</title>
  <g class="cls-2">
    <path class="cls-3" d="M165.73,272.68a35.13,35.13,0,1,0,27.79-41.19,35.15,35.15,0,0,0-27.79,41.19" transform="translate(-143 -41.52)"/>
    <path class="cls-4" d="M232.43,86.23a35.14,35.14,0,1,0,27.8-41.13,35.12,35.12,0,0,0-27.8,41.13" transform="translate(-143 -41.52)"/>
    <path class="cls-5" d="M314.67,310.62a35.14,35.14,0,1,0,27.78-41.19,35.14,35.14,0,0,0-27.78,41.19" transform="translate(-143 -41.52)"/>
    <path class="cls-6" d="M152.49,157.21a31.17,31.17,0,1,0,24.65-36.55,31.18,31.18,0,0,0-24.65,36.55" transform="translate(-143 -41.52)"/>
    <path class="cls-7" d="M382.69,192.21A35.14,35.14,0,1,0,410.48,151a35.14,35.14,0,0,0-27.79,41.2" transform="translate(-143 -41.52)"/>
    <path class="cls-8" d="M264.69,331.6A23.53,23.53,0,1,0,283.3,304a23.54,23.54,0,0,0-18.61,27.59" transform="translate(-143 -41.52)"/>
    <path class="cls-9" d="M316.47,76.17a23.53,23.53,0,1,0,18.6-27.58,23.52,23.52,0,0,0-18.6,27.58" transform="translate(-143 -41.52)"/>
    <path class="cls-10" d="M358.28,108.46a20.63,20.63,0,1,0,16.31-24.2,20.63,20.63,0,0,0-16.31,24.2" transform="translate(-143 -41.52)"/>
    <path class="cls-11" d="M397.25,131.29a18.49,18.49,0,1,0,14.62-21.68,18.49,18.49,0,0,0-14.62,21.68" transform="translate(-143 -41.52)"/>
    <path class="cls-12" d="M377,143.34a8.7,8.7,0,1,0,6.88-10.2,8.69,8.69,0,0,0-6.88,10.2" transform="translate(-143 -41.52)"/>
    <path class="cls-13" d="M338.69,129.64a11.33,11.33,0,1,0,9-13.29,11.33,11.33,0,0,0-9,13.29" transform="translate(-143 -41.52)"/>
    <path class="cls-14" d="M298.89,52.59a9.29,9.29,0,1,0,7.34-10.89,9.28,9.28,0,0,0-7.34,10.89" transform="translate(-143 -41.52)"/>
    <path class="cls-10" d="M368.15,72.94a7.63,7.63,0,1,0,6-8.94,7.63,7.63,0,0,0-6,8.94" transform="translate(-143 -41.52)"/>
    <path class="cls-15" d="M220.15,129.23A13.71,13.71,0,1,0,231,113.16a13.72,13.72,0,0,0-10.85,16.07" transform="translate(-143 -41.52)"/>
    <path class="cls-16" d="M191.79,99.85a19.29,19.29,0,1,0,15.26-22.62,19.29,19.29,0,0,0-15.26,22.62" transform="translate(-143 -41.52)"/>
    <path class="cls-17" d="M219.14,68.85a4.67,4.67,0,1,0,3.7-5.48,4.67,4.67,0,0,0-3.7,5.48" transform="translate(-143 -41.52)"/>
    <path class="cls-18" d="M173.68,108.69a7.63,7.63,0,1,0,6-9,7.63,7.63,0,0,0-6,9" transform="translate(-143 -41.52)"/>
    <path class="cls-19" d="M255.07,204.73a10,10,0,1,0,12.43-6.61,10,10,0,0,0-12.43,6.61" transform="translate(-143 -41.52)"/>
    <path class="cls-20" d="M143.75,221.86A21.2,21.2,0,1,0,160.52,197a21.21,21.21,0,0,0-16.77,24.86" transform="translate(-143 -41.52)"/>
    <path class="cls-21" d="M215.42,221.49A15.76,15.76,0,1,0,227.88,203a15.76,15.76,0,0,0-12.46,18.48" transform="translate(-143 -41.52)"/>
    <path class="cls-22" d="M143.18,186.68a9.55,9.55,0,1,0,7.55-11.19,9.53,9.53,0,0,0-7.55,11.19" transform="translate(-143 -41.52)"/>
    <path class="cls-23" d="M209.77,317.8a13.2,13.2,0,1,0,10.44-15.48,13.2,13.2,0,0,0-10.44,15.48" transform="translate(-143 -41.52)"/>
    <path class="cls-24" d="M238.7,332.85a9.63,9.63,0,1,0,7.62-11.28,9.64,9.64,0,0,0-7.62,11.28" transform="translate(-143 -41.52)"/>
    <path class="cls-25" d="M236.2,298.25a17,17,0,1,0,13.42-19.89,17,17,0,0,0-13.42,19.89" transform="translate(-143 -41.52)"/>
    <path class="cls-26" d="M283,288.13a13.61,13.61,0,1,0,10.76-15.95A13.61,13.61,0,0,0,283,288.13" transform="translate(-143 -41.52)"/>
    <path class="cls-27" d="M314,343a6.85,6.85,0,1,0,5.41-8,6.84,6.84,0,0,0-5.41,8" transform="translate(-143 -41.52)"/>
    <path class="cls-28" d="M388.62,310.12a5.11,5.11,0,1,0,4-6,5.11,5.11,0,0,0-4,6" transform="translate(-143 -41.52)"/>
    <path class="cls-5" d="M386.57,285.11a19.1,19.1,0,1,0,15.11-22.4,19.11,19.11,0,0,0-15.11,22.4" transform="translate(-143 -41.52)"/>
    <path class="cls-29" d="M411.71,250.8a15.09,15.09,0,1,0,11.94-17.69,15.09,15.09,0,0,0-11.94,17.69" transform="translate(-143 -41.52)"/>
    <path class="cls-30" d="M368.52,263.91a8.91,8.91,0,1,0,7.05-10.45,8.92,8.92,0,0,0-7.05,10.45" transform="translate(-143 -41.52)"/>
    <path class="cls-31" d="M302.85,258a16.33,16.33,0,1,0,12.92-19.15A16.34,16.34,0,0,0,302.85,258" transform="translate(-143 -41.52)"/>
    <path class="cls-32" d="M187.06,199.25a13.2,13.2,0,1,0,10.44-15.49,13.21,13.21,0,0,0-10.44,15.49" transform="translate(-143 -41.52)"/>
    <path class="cls-33" d="M221,182a21.57,21.57,0,1,0,17-25.29A21.55,21.55,0,0,0,221,182" transform="translate(-143 -41.52)"/>
    <path class="cls-34" d="M335.86,168.09a21.3,21.3,0,1,0,16.84-25,21.3,21.3,0,0,0-16.84,25" transform="translate(-143 -41.52)"/>
    <path class="cls-35" d="M242.33,253.57a26.28,26.28,0,1,0,20.78-30.8,26.28,26.28,0,0,0-20.78,30.8" transform="translate(-143 -41.52)"/>
    <path class="cls-36" d="M381.42,238.06a13.29,13.29,0,1,0,10.51-15.58,13.28,13.28,0,0,0-10.51,15.58" transform="translate(-143 -41.52)"/>
    <path class="cls-37" d="M252.84,141.83a17.18,17.18,0,1,0,13.59-20.14,17.18,17.18,0,0,0-13.59,20.14" transform="translate(-143 -41.52)"/>
    <path class="cls-38" d="M405.17,98.62a4.2,4.2,0,1,0,3.32-4.92,4.2,4.2,0,0,0-3.32,4.92" transform="translate(-143 -41.52)"/>
    <path class="cls-39" d="M325.82,223.11a25.73,25.73,0,1,0,20.35-30.17,25.73,25.73,0,0,0-20.35,30.17" transform="translate(-143 -41.52)"/>
    <path class="cls-40" d="M293.09,227.93a9.87,9.87,0,1,0,7.8-11.57,9.87,9.87,0,0,0-7.8,11.57" transform="translate(-143 -41.52)"/>
    <path class="cls-41" d="M153.41,250.11a4.94,4.94,0,1,0,3.91-5.8,4.94,4.94,0,0,0-3.91,5.8" transform="translate(-143 -41.52)"/>
    <path class="cls-42" d="M272.45,186.09a29.62,29.62,0,1,0,23.42-34.72,29.62,29.62,0,0,0-23.42,34.72" transform="translate(-143 -41.52)"/>
    <path class="cls-43" d="M297.22,116.78a19.74,19.74,0,1,0,15.61-23.15,19.74,19.74,0,0,0-15.61,23.15" transform="translate(-143 -41.52)"/>
    <path class="cls-44" d="M318.24,146.61A6.52,6.52,0,1,0,323.4,139a6.52,6.52,0,0,0-5.16,7.65" transform="translate(-143 -41.52)"/>
    <path class="cls-45" d="M220.07,152a5.24,5.24,0,1,0,4.15-6.15,5.24,5.24,0,0,0-4.15,6.15" transform="translate(-143 -41.52)"/>
    <path class="cls-46" d="M194.91,222.21a5.24,5.24,0,1,0,4.14-6.15,5.23,5.23,0,0,0-4.14,6.15" transform="translate(-143 -41.52)"/>
    <path class="cls-47" d="M434,147.18a5,5,0,1,0,4-5.9,5,5,0,0,0-4,5.9" transform="translate(-143 -41.52)"/>
    <path class="cls-48" d="M347,257.71a6.24,6.24,0,1,0,4.93-7.32,6.25,6.25,0,0,0-4.93,7.32" transform="translate(-143 -41.52)"/>
    <path class="cls-49" d="M195.66,310.64a4.16,4.16,0,1,0,3.29-4.87,4.15,4.15,0,0,0-3.29,4.87" transform="translate(-143 -41.52)"/>
    <path class="cls-50" d="M294.49,139.4a4.42,4.42,0,1,0,3.5-5.18,4.42,4.42,0,0,0-3.5,5.18" transform="translate(-143 -41.52)"/>
    <path class="cls-51" d="M369.72,191.47a4.2,4.2,0,1,0,3.33-4.92,4.2,4.2,0,0,0-3.33,4.92" transform="translate(-143 -41.52)"/>
    <path class="cls-52" d="M436,225.92a5.84,5.84,0,1,0,4.61-6.84,5.84,5.84,0,0,0-4.61,6.84" transform="translate(-143 -41.52)"/>
  </g>
  <text class="cls-53" transform="translate(35.47 429.25)"><tspan class="cls-54">G</tspan><tspan x="62.01" y="0">O</tspan></text>
  <text class="cls-55" transform="translate(156.85 429.25) scale(1 5)"> </text>
  <text class="cls-53" transform="translate(160.34 429.25)"><tspan class="cls-56">D</tspan><tspan x="52.1" y="0">O</tspan></text>
  <g class="cls-2">
    <text class="cls-53" transform="translate(14.4 491.75)"><tspan class="cls-57"> </tspan><tspan class="cls-58" x="21.02" y="0">G</tspan><tspan class="cls-59" x="82.97" y="0">O</tspan><tspan class="cls-60" x="144.62" y="0">O</tspan><tspan x="204.51" y="0">D</tspan></text>
  </g>
</svg>
